<svg version="1" xmlns="http://www.w3.org/2000/svg" width="266.667" height="266.667" viewBox="0 0 200.000000 200.000000"><path d="M85 13.8c-3 .9-5 3.6-5 6.5 0 3 .3 2.6-23.5 25-3.3 3.1-6.9 5.7-8 5.7-3.2 0-8.5 3.7-9.6 6.7-1.2 3.3-.5 6.7 2.1 9 1.8 1.8 1.7 2.2-6 19.3-7.6 16.7-8.1 17.5-11.2 18.2-6.7 1.3-8.7 7.8-4.3 13.8 1.4 1.9 2.3 4.2 2 5.4-.2 1.2-.7 7.3-1 13.6-1.1 19.8-1.4 21.2-4.3 24.3-5.1 5.3-2.7 12.9 4.6 14.3 2.8.6 3.7.2 6.6-2.9l3.3-3.6 32.6-.4 32.6-.4.5 2.2c.8 3.3 6.7 5.8 10.2 4.4 1.6-.5 3.1-1.5 3.5-2 .7-1.2 32 11.1 34.4 13.5 4.8 4.8 13-.5 14.4-9.3.5-2.5 4.1-11.7 8.2-20.4 5.8-12.5 7.9-16.2 10.1-17.3 3.2-1.7 6-5.5 6.2-8.7.3-3-2.9-7.3-5.8-8.1-2.1-.5-2.4-1.3-3.1-7.8-.4-4-.9-8.2-1.1-9.3-.2-1.1-.6-4.9-1-8.5-.3-3.6-1-8.5-1.3-11-.6-3.5-.3-5.3 1.2-8.1 1.4-2.4 1.8-4.4 1.3-6.2-.7-3.1-5.9-6.7-8.5-6-1.2.3-3.3-1.4-6.7-5.4-2.7-3.2-6.6-7.7-8.8-10-6.6-7.2-6.9-7.9-5.1-10.7 2.6-3.9 2.2-8.3-1-11.6-3.4-3.6-9-4.1-12.6-1.1-2.3 1.8-2.5 1.8-10.9-.5-4.7-1.4-12.3-3.4-17-4.5-6.4-1.6-9.1-2.8-11-4.9-2.8-3-4.7-3.9-7-3.2zm24.7 14.7c9.2 2.5 16.8 4.7 16.9 4.8.1.1.4 1.2.6 2.4.2 1.5-2.8 5.8-10.7 15.3-10.3 12.5-11.1 13.1-13.9 12.6-1.6-.4-3.1-.8-3.4-1-1-1-9.2-36-8.8-37.3.7-1.8.6-1.8 19.3 3.2zM89.5 44.9l4.7 18.9-2.2 3-2.2 3-16.4-5.6c-14.7-5.1-16.5-6-17.5-8.5-1.1-2.6-1-3.1 1.3-5 1.4-1.2 6.6-5.9 11.5-10.4C77.5 32.2 84.4 26 84.6 26c.1 0 2.3 8.5 4.9 18.9zm46.3-1.3c1.3.3 3.6 1.9 5.1 3.7 17.5 20 20 23.6 16.9 23.8-.7 0-11.7.2-24.5.4-30.1.4-29.3 1.5-12.9-17.9 7.2-8.4 10.4-11.5 11.5-11 .9.3 2.6.8 3.9 1zm-45.1 34l1.6 3.2-10.2 14.6c-9.7 13.9-10.3 14.5-12.5 13.4-1.3-.5-2.6-2-2.9-3.2-.2-1.1-3.4-10.5-7-20.7-8.6-24.4-9.2-23.6 13-16.1 15.4 5.2 16.6 5.8 18 8.8zm-38.4-.9c1.4 4.3 4.4 13.2 6.7 19.8 2.6 7.5 3.7 12.1 3 12.3-.6.2-1.7 1.7-2.5 3.2-1 2-2.1 2.8-3.4 2.5-1.1-.2-4.1-.7-6.8-1.1-2.6-.3-5.5-.8-6.3-.9-.8-.2-3.3-.6-5.5-.9-3-.5-4.3-1.4-5.3-3.4-1.1-2.5-.6-4.1 7-20.9C43.7 77.2 47.9 69 48.5 69c.6 0 2.3 3.5 3.8 7.7zm106.8.4c.5.8.3 2.2-.5 3.4-.7 1.1-5.5 9.1-10.6 17.8-9.2 15.6-12.1 18.9-14.7 16.4-.6-.7-6.5-8.9-13.1-18.4-9.8-14.1-11.8-17.5-10.9-18.7 1-1.3 4.5-1.6 20.7-1.8 26.2-.4 28.1-.3 29.1 1.3zm7 6.1c0 1.3.2 3.1.4 4.1.2 1 .6 4.6.9 8 .6 5.7 2.4 20.4 3.1 25.2.2 1.6-1.3 5-4 9.3-.1.1-4.8-1.4-10.4-3.4-8.9-3.3-10.3-4.1-11.7-6.9-1.5-3.2-1.5-3.3 4-12.4 3.1-5 5.6-9.6 5.6-10.1 0-.6.3-1 .8-1 .4 0 1.3-1.3 1.9-2.8 2.1-4.7 7.2-12.2 8.3-12.2.5 0 1 1 1.1 2.2zm-49.6 15.9c6.1 8.8 11.4 16.6 12 17.4 1 1.6-.5 5.1-2.2 4.9-.4-.1-3.5-.5-6.8-.9-3.3-.3-6.9-.8-8-1-1.1-.2-4.7-.7-8-1-13.7-1.4-26.8-3.4-27.6-4.2-.9-.9 1.6-5 13.2-21.4l6.7-9.6h4.9l4.8-.1 11 15.9zM39 116.3c22 2.8 24 3.9 18.1 10.4-3.1 3.5-13 14.3-25.2 27.7-2.8 3.1-4 3.7-5.8 3.1-2.1-.6-2.2-1.1-1.7-7.3.7-9.4 1.9-27.5 1.9-29 0-.6.6-1.2 1.3-1.2.6 0 2.2-1.1 3.5-2.4 1.3-1.3 2.8-2.2 3.3-2 .6.1 2.7.5 4.6.7zm50 5.2c1.9.3 5.5.7 8 1 2.5.3 6.1.7 8 1 1.9.2 7.5.9 12.4 1.5s9.3 1.3 9.8 1.6c1.8 1.1.4 4-8.4 17.4-12.6 18.9-11.5 19-28.5-1.3-7-8.4-13.4-16-14.1-16.9-.8-1-1.1-2.6-.7-3.7.7-2.2 1.8-2.2 13.5-.6zm-4.3 21.8c11.2 13.6 13.9 17.4 13.1 18.6-1.1 1.7.1 1.7-45.8 2.1-10.2.1-19.1.1-19.7.1-2.5-.2-1.2-2.7 4.5-8.7 8.1-8.6 22.3-24.2 24.9-27.3 1.8-2.2 2.9-2.6 5.5-2.3 2.9.4 5.2 2.8 17.5 17.5zm72.4-11.8c5.5 2 10.1 4.4 11 5.7 1.9 2.4 2 1.9-4.2 14.8-2 4.2-4.7 9.9-5.9 12.8-1.6 3.7-2.6 5-3.3 4.3-.6-.6-1.9-1.1-2.9-1.1-2.5 0-3.3-2.2-6.8-18.4-1.7-7.7-3.3-14.3-3.6-14.8-.7-1 3.7-6.7 5.2-6.7.6-.1 5.3 1.5 10.5 3.4zm-20.5 2.9c.1.3 6.7 28.5 7.1 30.5.2 1.4.6 2.8.8 3.1.3.4-.4 1.5-1.5 2.5-1 .9-2.2 3-2.5 4.7-.5 2.2-1.1 2.8-2.3 2.3-1-.3-6.9-2.6-13.4-5.2-15.6-6.1-15.5-5.7-2.9-24.7 8.8-13.3 9.8-14.4 12.1-13.9 1.4.3 2.5.6 2.6.7z"/></svg>